<svg xmlns="http://www.w3.org/2000/svg" id="Calque_1" data-name="Calque 1" viewBox="30.24 38.61 60.94 44.78"><defs><style>.cls-1{opacity:0.1;}.cls-2,.cls-3{fill-rule:evenodd;}.cls-3{fill:#0c160f;}</style></defs><g class="cls-1"><path class="cls-2" d="M35.74,40.91c3.21-.06,16.5,0,19,0,2,2.41,4.33,5.38,6.29,7.79l1.09,0L67.69,41H87.13L61.63,74.82H61Z"/></g><path class="cls-3" d="M34.32,38.64c3.21-.06,16.5,0,19,0,2,2.41,4.34,5.37,6.3,7.78l1.08,0,5.52-7.68H85.71L60.21,72.55h-.66Z"/><g class="cls-1"><path class="cls-2" d="M31.66,41.15,44.38,58v8.88L31.66,83.15Z"/></g><path class="cls-3" d="M30.24,38.88,43,55.68v8.88L30.24,80.88Z"/><g class="cls-1"><path class="cls-2" d="M90.94,41.15l.24,10.08v15.6L78.46,83.39V57.71Z"/></g><path class="cls-3" d="M89.52,38.88,89.76,49v15.6L77,81.12V55.44Z"/></svg>